<svg width="11" height="11" viewBox="0 0 11 11" fill="none" xmlns="http://www.w3.org/2000/svg">
<path d="M2.75 0.807129C1.99375 0.807129 1.32 1.12364 0.81125 1.61905C0.31625 2.11446 0 2.78877 0 3.55941C0 4.31628 0.31625 4.99059 0.81125 5.49976L5.5 10.1924L10.1887 5.49976C10.6838 5.00435 11 4.33004 11 3.55941C11 2.80253 10.6838 2.12822 10.1887 1.61905C9.69375 1.12364 9.02 0.807129 8.25 0.807129C7.49375 0.807129 6.82 1.12364 6.31125 1.61905C5.81625 2.11446 5.5 2.78877 5.5 3.55941C5.5 2.80253 5.18375 2.12822 4.68875 1.61905C4.19375 1.12364 3.52 0.807129 2.75 0.807129Z" fill="#F6ED1E"/>
</svg>
