<svg width="15" height="15" viewBox="0 0 15 15" fill="none" xmlns="http://www.w3.org/2000/svg">
<path d="M0.238281 5.3417C0.238281 3.47194 0.238281 2.53705 0.602163 1.82289C0.922244 1.1947 1.43298 0.683963 2.06117 0.363881C2.77533 0 3.71022 0 5.57998 0H9.65658C11.5264 0 12.4612 0 13.1754 0.363881C13.8036 0.683963 14.3143 1.1947 14.6344 1.82289C14.9983 2.53705 14.9983 3.47194 14.9983 5.3417V9.4183C14.9983 11.2881 14.9983 12.223 14.6344 12.9371C14.3143 13.5653 13.8036 14.076 13.1754 14.3961C12.4612 14.76 11.5264 14.76 9.65658 14.76H5.57998C3.71022 14.76 2.77533 14.76 2.06117 14.3961C1.43298 14.076 0.922244 13.5653 0.602163 12.9371C0.238281 12.223 0.238281 11.2881 0.238281 9.4183V5.3417Z" fill="#330000"/>
<path d="M7.39123 9.27558H5.10401L4.63865 10.7583C4.62573 10.8134 4.57502 10.8524 4.51983 10.8496H3.36135C3.29528 10.8496 3.27218 10.8124 3.29204 10.7379L5.27233 4.88843C5.29215 4.82749 5.31197 4.75812 5.33174 4.68026C5.35767 4.54473 5.3709 4.40705 5.37138 4.26899C5.36568 4.22819 5.40153 4.19215 5.44064 4.19786H7.01501C7.06113 4.19786 7.08749 4.2148 7.09419 4.24864L9.34187 10.7481C9.36164 10.8158 9.34187 10.8497 9.28246 10.8496H7.99523C7.95011 10.8548 7.90699 10.8239 7.89623 10.7786L7.39123 9.27558ZM5.46046 7.99599H7.02492C6.76788 7.11767 6.4778 6.25089 6.24269 5.36576C5.98903 6.25241 5.71228 7.13548 5.46046 7.99599Z" fill="#FF9A00"/>
<path d="M10.679 5.27443C10.578 5.27859 10.4773 5.26083 10.3834 5.22235C10.2896 5.18387 10.2047 5.12546 10.1344 5.05103C10.0643 4.97332 10.0098 4.88223 9.97409 4.78287C9.9384 4.68355 9.92222 4.57797 9.92644 4.47217C9.92285 4.36743 9.94083 4.26311 9.9792 4.16598C10.0176 4.06886 10.0756 3.98114 10.1493 3.90854C10.2222 3.83669 10.3084 3.78041 10.4027 3.74293C10.497 3.70545 10.5976 3.68753 10.6988 3.6902C10.9364 3.6902 11.1229 3.76298 11.2582 3.90854C11.3265 3.98418 11.3796 4.0729 11.4145 4.16962C11.4492 4.26632 11.4652 4.36917 11.4612 4.47217C11.4653 4.57834 11.4486 4.68434 11.412 4.78376C11.3755 4.88318 11.3198 4.97406 11.2483 5.05103C11.1736 5.12656 11.0844 5.18539 10.9865 5.22388C10.8885 5.2623 10.7838 5.27954 10.679 5.27443ZM9.99576 10.7482V5.89393C9.99576 5.83299 10.0221 5.80252 10.075 5.80252H11.2929C11.3456 5.80252 11.372 5.83299 11.3721 5.89393V10.7482C11.3721 10.816 11.3457 10.8498 11.2929 10.8498H10.0849C10.0255 10.8498 9.99576 10.8159 9.99576 10.7482Z" fill="#FF9A00"/>
</svg>
