<svg width="16" height="15" viewBox="0 0 16 15" fill="none" xmlns="http://www.w3.org/2000/svg">
<path d="M0.621094 5.46181C0.621094 3.59205 0.621094 2.65717 0.984975 1.94301C1.30506 1.31482 1.81579 0.80408 2.44399 0.483999C3.15814 0.120117 4.09303 0.120117 5.96279 0.120117H10.0394C11.9092 0.120117 12.8441 0.120117 13.5582 0.483999C14.1864 0.80408 14.6971 1.31482 15.0172 1.94301C15.3811 2.65717 15.3811 3.59205 15.3811 5.46181V9.53842C15.3811 11.4082 15.3811 12.3431 15.0172 13.0572C14.6971 13.6854 14.1864 14.1961 13.5582 14.5162C12.8441 14.8801 11.9092 14.8801 10.0394 14.8801H5.96279C4.09303 14.8801 3.15814 14.8801 2.44399 14.5162C1.81579 14.1961 1.30506 13.6854 0.984975 13.0572C0.621094 12.3431 0.621094 11.4082 0.621094 9.53842V5.46181Z" fill="#001E36"/>
<path d="M3.78516 10.9352V4.44462C3.78516 4.4005 3.80361 4.37525 3.84666 4.37525C4.4822 4.37525 5.11746 4.3374 5.75314 4.3374C6.7847 4.3374 7.90161 4.69011 8.29312 5.76923C8.38537 6.03417 8.43456 6.30538 8.43456 6.58925C8.43456 7.13173 8.31157 7.57954 8.06556 7.93278C7.37837 8.91949 6.18735 8.90415 5.11972 8.90415V10.929C5.12805 10.9889 5.07697 11.0173 5.02747 11.0173H3.85896C3.80976 11.0173 3.78516 10.992 3.78516 10.9352ZM5.12584 5.59263V7.71201C5.54919 7.74301 5.99214 7.74638 6.39889 7.61112C6.84796 7.48155 7.09387 7.09288 7.09387 6.6271C7.10631 6.23021 6.89008 5.84941 6.52192 5.70618C6.12008 5.53908 5.55962 5.52906 5.12584 5.59263Z" fill="#31A8FF"/>
<path d="M12.2707 7.29311C12.0846 7.19501 11.8864 7.12326 11.6815 7.07983C11.4183 7.01789 10.3799 6.80092 10.3795 7.34387C10.3887 7.64698 10.8699 7.79548 11.0825 7.88209C11.8289 8.13833 12.6734 8.59637 12.6568 9.51713C12.6797 10.6633 11.5691 11.1216 10.6171 11.1217C10.1215 11.1268 9.60526 11.0501 9.1517 10.8373C9.10837 10.8144 9.08054 10.7654 9.08238 10.7154V9.61865C9.07748 9.57469 9.12471 9.53626 9.16161 9.56789C9.60599 9.83663 10.1327 9.96715 10.6468 9.97411C10.8738 9.97411 11.3235 9.95212 11.3202 9.61865C11.3202 9.29868 10.7821 9.15155 10.5676 9.07027C10.2567 8.9593 9.96192 8.80554 9.69134 8.61329C9.31317 8.34355 9.07595 7.91108 9.08238 7.43528C9.08017 6.35601 10.1025 5.87156 11.0231 5.87135C11.4535 5.86777 11.9157 5.89966 12.3163 6.07446C12.3739 6.09138 12.3858 6.15211 12.3856 6.20646V7.23217C12.3893 7.29585 12.3186 7.31752 12.2707 7.29311Z" fill="#31A8FF"/>
</svg>
