<svg width="11" height="15" viewBox="0 0 11 15" fill="none" xmlns="http://www.w3.org/2000/svg">
<path fill-rule="evenodd" clip-rule="evenodd" d="M5.62109 7.5C5.62109 6.11929 6.74038 5 8.12109 5C9.50181 5 10.6211 6.11929 10.6211 7.5C10.6211 8.88071 9.50181 10 8.12109 10C6.74038 10 5.62109 8.88071 5.62109 7.5Z" fill="#1ABCFE"/>
<path fill-rule="evenodd" clip-rule="evenodd" d="M0.621094 12.5C0.621094 11.1193 1.74038 10 3.12109 10H5.62109V12.5C5.62109 13.8807 4.50181 15 3.12109 15C1.74038 15 0.621094 13.8807 0.621094 12.5Z" fill="#0ACF83"/>
<path fill-rule="evenodd" clip-rule="evenodd" d="M5.62109 0L5.62109 5H8.12109C9.50181 5 10.6211 3.88071 10.6211 2.5C10.6211 1.11929 9.50181 0 8.12109 0L5.62109 0Z" fill="#FF7262"/>
<path fill-rule="evenodd" clip-rule="evenodd" d="M0.621094 2.5C0.621094 3.88071 1.74038 5 3.12109 5L5.62109 5L5.62109 0L3.12109 0C1.74038 0 0.621094 1.11929 0.621094 2.5Z" fill="#F24E1E"/>
<path fill-rule="evenodd" clip-rule="evenodd" d="M0.621094 7.5C0.621094 8.88071 1.74038 10 3.12109 10H5.62109L5.62109 5L3.12109 5C1.74038 5 0.621094 6.11929 0.621094 7.5Z" fill="#A259FF"/>
</svg>
