<svg width="20" height="21" viewBox="0 0 20 21" fill="none" xmlns="http://www.w3.org/2000/svg">
<g clip-path="url(#clip0_6795_11907)">
<path d="M10 20.4824C15.5228 20.4824 20 16.0053 20 10.4824C20 4.95957 15.5228 0.482422 10 0.482422C4.47715 0.482422 0 4.95957 0 10.4824C0 16.0053 4.47715 20.4824 10 20.4824Z" fill="#FF4A00"/>
<path d="M11.25 10.4846C11.2501 10.8448 11.185 11.2021 11.058 11.5393C10.7206 11.6668 10.3629 11.7322 10.0021 11.7324H9.99785C9.6376 11.7324 9.2803 11.6674 8.94316 11.5404C8.81564 11.203 8.7502 10.8453 8.75 10.4846V10.4803C8.75004 10.12 8.81508 9.76274 8.94199 9.42559C9.27942 9.29806 9.63713 9.23261 9.99785 9.23242H10.0021C10.3628 9.23228 10.7205 9.29739 11.058 9.42461C11.185 9.76173 11.2501 10.119 11.25 10.4793V10.4836V10.4846ZM14.9305 9.64902H12.0117L14.0756 7.58535C13.9135 7.35801 13.7327 7.14457 13.5352 6.94727C13.3378 6.74999 13.1244 6.56948 12.8971 6.40762L10.8334 8.4707V5.55195C10.5589 5.50584 10.2811 5.48259 10.0027 5.48242H9.99746C9.71913 5.48259 9.44129 5.50584 9.1668 5.55195V8.4707L7.10293 6.40684C6.87559 6.56894 6.66216 6.74971 6.46484 6.94727C6.26764 7.14449 6.0872 7.35779 5.92539 7.58496L7.98828 9.64902H5.06953C5.06953 9.64902 5 10.1973 5 10.4807V10.4842C5.00011 10.7628 5.02337 11.041 5.06953 11.3158H7.98828L5.92441 13.3795C6.24896 13.8352 6.64727 14.2335 7.10293 14.558L9.1666 12.4941V15.4129C9.44083 15.459 9.71841 15.4822 9.99648 15.4824H10.0037C10.2817 15.4822 10.5592 15.4589 10.8334 15.4129V12.4941L12.8971 14.558C13.1244 14.3959 13.3378 14.2151 13.5352 14.0176C13.7325 13.8202 13.9131 13.6068 14.075 13.3795L12.0117 11.3158H14.9305C14.9765 11.0416 14.9998 10.764 15 10.4859V10.4787C14.9998 10.2007 14.9765 9.92319 14.9305 9.64902Z" fill="white"/>
</g>
<defs>
<clipPath id="clip0_6795_11907">
<rect width="20" height="20" fill="white" transform="translate(0 0.482422)"/>
</clipPath>
</defs>
</svg>
