<svg width="15" height="15" viewBox="0 0 15 15" fill="none" xmlns="http://www.w3.org/2000/svg">
<path d="M0 5.3417C0 3.47194 0 2.53705 0.363881 1.82289C0.683963 1.1947 1.1947 0.683963 1.82289 0.363881C2.53705 0 3.47194 0 5.3417 0H9.4183C11.2881 0 12.223 0 12.9371 0.363881C13.5653 0.683963 14.076 1.1947 14.3961 1.82289C14.76 2.53705 14.76 3.47194 14.76 5.3417V9.4183C14.76 11.2881 14.76 12.223 14.3961 12.9371C14.076 13.5653 13.5653 14.076 12.9371 14.3961C12.223 14.76 11.2881 14.76 9.4183 14.76H5.3417C3.47194 14.76 2.53705 14.76 1.82289 14.3961C1.1947 14.076 0.683963 13.5653 0.363881 12.9371C0 12.223 0 11.2881 0 9.4183V5.3417Z" fill="#00005B"/>
<path d="M3.16406 10.4351V3.79957C3.16406 3.75443 3.18257 3.72863 3.22574 3.72863C3.86318 3.72863 4.50032 3.68994 5.13795 3.68994C6.17252 3.68994 7.2928 4.05052 7.68547 5.15376C7.77799 5.42461 7.82733 5.70189 7.82733 5.99208C7.82733 6.54663 7.70397 7.00446 7.45722 7.3656C6.76803 8.37434 5.57342 8.35869 4.50258 8.35869V10.4286C4.51096 10.4899 4.45973 10.5189 4.41007 10.5189H3.23808C3.18874 10.5189 3.16406 10.4931 3.16406 10.4351ZM4.50875 4.97322V7.13988C4.93336 7.17161 5.37764 7.17504 5.7856 7.03672C6.23599 6.9043 6.48264 6.50694 6.48264 6.03077C6.49518 5.62503 6.27826 5.23568 5.909 5.08929C5.50595 4.91845 4.94386 4.90822 4.50875 4.97322Z" fill="#9999FF"/>
<path d="M8.665 5.38325H9.74754C9.80721 5.38383 9.86082 5.42689 9.87658 5.48709C9.95592 5.67123 9.96572 5.89331 9.96599 6.0921C10.1516 5.86611 10.3755 5.67787 10.6264 5.53665C10.8955 5.3775 11.2006 5.2968 11.5097 5.30307C11.561 5.29537 11.6064 5.34287 11.5991 5.39648V6.65271C11.5991 6.70126 11.5659 6.72541 11.4998 6.72541C11.0416 6.69235 10.3282 6.80553 9.9953 7.18223V10.4486C9.9953 10.5109 9.96883 10.5421 9.91586 10.5421H8.7544C8.69737 10.5506 8.64702 10.497 8.65509 10.4382V6.89151C8.65509 6.41629 8.66495 5.92673 8.59552 5.45594C8.58482 5.41261 8.62446 5.37233 8.665 5.38325Z" fill="#9999FF"/>
</svg>
