<svg width="17" height="18" viewBox="0 0 17 18" fill="none" xmlns="http://www.w3.org/2000/svg">
<path d="M1.12461 8.76807C1.12461 11.6908 2.82462 14.2081 5.28307 15.4046L1.76538 5.76692C1.34298 6.71107 1.12463 7.73374 1.12461 8.76807ZM8.5 16.1434C9.35655 16.1434 10.1804 15.9931 10.9519 15.725L10.8996 15.6269L8.63076 9.41538L6.42076 15.8427C7.07462 16.0388 7.77424 16.1434 8.5 16.1434ZM9.51345 5.30921L12.1811 13.2404L12.92 10.7819C13.2339 9.76192 13.4758 9.02961 13.4758 8.39538C13.4758 7.47999 13.1489 6.8523 12.8742 6.36845C12.495 5.75383 12.1485 5.2373 12.1485 4.63576C12.1485 3.95576 12.6585 3.32807 13.3908 3.32807H13.4823C12.1233 2.08047 10.3448 1.38961 8.5 1.39268C7.2785 1.39245 6.07609 1.69589 5.00096 2.27568C3.92581 2.85548 3.01167 3.69345 2.34076 4.71421L2.81154 4.7273C3.58307 4.7273 4.77307 4.62921 4.77307 4.62921C5.17846 4.60961 5.22424 5.19152 4.82538 5.2373C4.82538 5.2373 4.42655 5.28961 3.97538 5.30921L6.66924 13.2992L8.28424 8.46076L7.13345 5.30921C6.8757 5.295 6.61841 5.27319 6.36193 5.24383C5.96307 5.21768 6.00885 4.60961 6.40769 4.62921C6.40769 4.62921 7.62385 4.7273 8.34962 4.7273C9.12115 4.7273 10.3111 4.62921 10.3111 4.62921C10.71 4.60961 10.7623 5.19152 10.3635 5.2373C10.3635 5.2373 9.96462 5.28307 9.51345 5.30921ZM12.2073 15.1431C13.3231 14.4943 14.249 13.5641 14.8927 12.4454C15.5364 11.3267 15.8752 10.0587 15.8754 8.76807C15.8754 7.48652 15.5485 6.28345 14.9731 5.23076C15.0899 6.3889 14.9146 7.55787 14.4631 8.63076L12.2073 15.1431ZM8.5 17.2681C6.24566 17.2681 4.08365 16.3725 2.4896 14.7785C0.895533 13.1844 0 11.0224 0 8.76807C0 6.51373 0.895533 4.35172 2.4896 2.75767C4.08365 1.1636 6.24566 0.268066 8.5 0.268066C10.7543 0.268066 12.9163 1.1636 14.5104 2.75767C16.1045 4.35172 17 6.51373 17 8.76807C17 11.0224 16.1045 13.1844 14.5104 14.7785C12.9163 16.3725 10.7543 17.2681 8.5 17.2681Z" fill="#126FC2"/>
</svg>
