<svg width="18" height="19" viewBox="0 0 18 19" fill="none" xmlns="http://www.w3.org/2000/svg">
<path fill-rule="evenodd" clip-rule="evenodd" d="M2 0.482422C0.895431 0.482422 0 1.37785 0 2.48242L0 16.4824C0 17.587 0.89543 18.4824 2 18.4824L16 18.4824C17.1046 18.4824 18 17.587 18 16.4824L18 2.48242C18 1.37785 17.1046 0.482422 16 0.482422L2 0.482422Z" fill="white"/>
<path fill-rule="evenodd" clip-rule="evenodd" d="M2 0.482422C0.895431 0.482422 0 1.37785 0 2.48242L0 16.4824C0 17.587 0.89543 18.4824 2 18.4824L16 18.4824C17.1046 18.4824 18 17.587 18 16.4824L18 2.48242C18 1.37785 17.1046 0.482422 16 0.482422L2 0.482422ZM12.401 7.82565C12.401 7.82565 11.428 10.7646 11.3485 11.0073C11.1035 9.16535 10.8561 7.32374 10.6065 5.48242C8.9485 5.48242 8.062 6.61888 7.5935 7.81842L6.311 11.0145C6.3035 10.7853 6.131 7.8531 6.131 7.8531C6.029 6.3834 4.631 5.48868 3.5 5.48868L4.8695 13.4824C6.6065 13.4752 7.543 12.3455 8.0335 11.1459C8.0335 11.1459 9.0785 8.54653 9.1215 8.42855C9.129 8.5393 9.8715 13.4819 9.8715 13.4819C11.6155 13.4819 12.5525 12.4216 13.0565 11.2639L15.5 5.48916C13.7775 5.48916 12.8695 6.61936 12.401 7.82565Z" fill="#4353FF"/>
</svg>
