<svg width="21" height="17" viewBox="0 0 21 17" fill="none" xmlns="http://www.w3.org/2000/svg">
<path d="M0.75 15.3218C0.75 16.027 1.32612 16.5981 2.03595 16.5981H2.05443C1.33373 16.5981 0.75 16.027 0.75 15.3218Z" fill="#FBBC05"/>
<path d="M11.8008 5.42992V8.76229L16.2935 5.13848V1.91992C16.2935 1.21473 15.7174 0.643555 15.0076 0.643555L5.27432 0.643555L5.26562 5.42992L11.8008 5.42992Z" fill="#FBBC05"/>
<path d="M11.7998 12.096H5.2537L5.24609 16.5984H15.0065C15.7174 16.5984 16.2925 16.0272 16.2925 15.3221V12.4162L11.7998 8.76367V12.096Z" fill="#34A853"/>
<path d="M5.27421 0.643555L0.75 5.42992L5.2666 5.42992L5.27421 0.643555Z" fill="#EA4335"/>
<path d="M0.75 12.0957L0.75 15.3217C0.75 16.0269 1.33373 16.5981 2.05443 16.5981H5.24704L5.25465 12.0957H0.75Z" fill="#1967D2"/>
<path d="M5.2666 5.42969L0.75 5.42969L0.75 12.0955H5.25465L5.2666 5.42969Z" fill="#4285F4"/>
<path d="M20.2421 14.187V3.23156C19.9889 1.77757 18.3942 3.44429 18.3942 3.44429L16.293 5.13866V12.415L19.3008 14.8603C20.3867 15.0028 20.2421 14.187 20.2421 14.187Z" fill="#34A853"/>
<path d="M11.8008 8.76239L16.2946 12.416V5.13965L11.8008 8.76239Z" fill="#188038"/>
</svg>
